<svg xmlns="http://www.w3.org/2000/svg" width="20.069" height="20.967" viewBox="0 0 20.069 20.967"><defs><style>.a{fill:#fff;}</style></defs><g transform="translate(-1293 -2522)"><g transform="translate(34.235 1355.379)"><path class="a" d="M1310.719,1280.158h-6.641a1.465,1.465,0,0,1-1.419-.745.94.94,0,0,1,.229-1.271,2.162,2.162,0,0,1,1.16-.447c4.46-.031,8.921-.023,13.381-.016a1.346,1.346,0,0,1,1.512,1.249c0,.713-.632,1.227-1.533,1.23C1315.18,1280.162,1312.95,1280.158,1310.719,1280.158Z" transform="translate(-40.109 -101.811)"/><path class="a" d="M1311.1,1166.622h6.542c.993,0,1.627.477,1.631,1.223s-.628,1.249-1.613,1.25q-6.591.007-13.182,0c-.983,0-1.612-.505-1.6-1.255s.638-1.218,1.636-1.218Z" transform="translate(-40.442)"/><path class="a" d="M1311.053,1391.419q-3.3,0-6.59,0c-.959,0-1.58-.48-1.586-1.215s.6-1.246,1.557-1.248q6.64-.013,13.279,0c.956,0,1.568.511,1.563,1.245s-.63,1.218-1.583,1.219Q1314.373,1391.422,1311.053,1391.419Z" transform="translate(-40.442 -203.831)"/><ellipse class="a" cx="1.212" cy="1.212" rx="1.212" ry="1.212" transform="translate(1258.765 1166.621)"/><ellipse class="a" cx="1.212" cy="1.212" rx="1.212" ry="1.212" transform="translate(1258.765 1175.892)"/><ellipse class="a" cx="1.212" cy="1.212" rx="1.212" ry="1.212" transform="translate(1258.765 1185.141)"/></g></g></svg>