<svg xmlns="http://www.w3.org/2000/svg" width="18" height="18" viewBox="0 0 18 18"><defs><style>.a{fill:#fff;}</style></defs><path class="a" d="M10.421,9.473h0a.948.948,0,0,0,0,1.9h0a.948.948,0,0,0,0-1.9ZM7.579,8.526a.947.947,0,1,0-.947-.947A.948.948,0,0,0,7.579,8.526Zm2.842-1.895h0a.947.947,0,1,0,0,1.895h0a.947.947,0,1,0,0-1.895Zm.947-4.737H6.632V3.789h4.737Zm1.895,6.632a.947.947,0,1,0-.947-.947A.948.948,0,0,0,13.263,8.526Zm0,2.842a.947.947,0,1,0-.947-.947A.948.948,0,0,0,13.263,11.369Zm-5.684,0a.948.948,0,1,0-.947-.947A.948.948,0,0,0,7.579,11.369ZM4.737,14.211a.947.947,0,1,0-.947-.947A.948.948,0,0,0,4.737,14.211ZM16.105,1.895h-.947V3.789h.947V16.105H1.895V3.79h.947V1.895H1.895A1.9,1.9,0,0,0,0,3.79V16.1A1.9,1.9,0,0,0,1.895,18h14.21A1.9,1.9,0,0,0,18,16.1V3.79A1.894,1.894,0,0,0,16.105,1.895ZM4.737,11.369a.948.948,0,1,0-.947-.947A.948.948,0,0,0,4.737,11.369Zm0-2.842a.947.947,0,1,0-.947-.947A.948.948,0,0,0,4.737,8.526Zm2.842,5.684a.947.947,0,1,0-.947-.947A.948.948,0,0,0,7.579,14.211ZM4.737,3.79a.948.948,0,0,0,.947-.947V.947a.947.947,0,1,0-1.895,0V2.842A.948.948,0,0,0,4.737,3.79Zm8.526,0a.948.948,0,0,0,.947-.947V.947a.947.947,0,1,0-1.895,0V2.842A.948.948,0,0,0,13.263,3.79Z" transform="translate(0 0)"/></svg>