<svg xmlns="http://www.w3.org/2000/svg" width="24" height="24" viewBox="0 0 24 24"><defs><style>.a{fill:#ff619e;}</style></defs><g transform="translate(0 0)"><g transform="translate(0 0)"><path class="a" d="M13.895,12.631h0a1.264,1.264,0,0,0,0,2.527h0a1.264,1.264,0,0,0,0-2.527Zm-3.79-1.263a1.263,1.263,0,1,0-1.263-1.263A1.264,1.264,0,0,0,10.105,11.368Zm3.79-2.526h0a1.263,1.263,0,1,0,0,2.526h0a1.263,1.263,0,1,0,0-2.526Zm1.263-6.316H8.842V5.053h6.316Zm2.526,8.842a1.263,1.263,0,1,0-1.263-1.263A1.264,1.264,0,0,0,17.684,11.368Zm0,3.79a1.263,1.263,0,1,0-1.263-1.263A1.264,1.264,0,0,0,17.684,15.158Zm-7.579,0a1.264,1.264,0,1,0-1.263-1.263A1.264,1.264,0,0,0,10.105,15.158Zm-3.789,3.79a1.263,1.263,0,1,0-1.263-1.263A1.264,1.264,0,0,0,6.316,18.948ZM21.474,2.526H20.211V5.053h1.263V21.474H2.526V5.053H3.789V2.526H2.526A2.526,2.526,0,0,0,0,5.053v16.42A2.526,2.526,0,0,0,2.526,24H21.474A2.526,2.526,0,0,0,24,21.473V5.053A2.526,2.526,0,0,0,21.474,2.526ZM6.316,15.158a1.264,1.264,0,1,0-1.263-1.263A1.264,1.264,0,0,0,6.316,15.158Zm0-3.79a1.263,1.263,0,1,0-1.263-1.263A1.264,1.264,0,0,0,6.316,11.368Zm3.789,7.579a1.263,1.263,0,1,0-1.263-1.263A1.264,1.264,0,0,0,10.105,18.948ZM6.316,5.053A1.264,1.264,0,0,0,7.579,3.789V1.263a1.263,1.263,0,1,0-2.526,0V3.789A1.264,1.264,0,0,0,6.316,5.053Zm11.369,0a1.264,1.264,0,0,0,1.263-1.263V1.263a1.263,1.263,0,1,0-2.526,0V3.789A1.264,1.264,0,0,0,17.684,5.053Z" transform="translate(0 0)"/></g></g></svg>