<svg xmlns="http://www.w3.org/2000/svg" width="26.973" height="25.667" viewBox="0 0 26.973 25.667"><defs><style>.a{fill:#ff619e;}</style></defs><path class="a" d="M849.734,1105.532a12.976,12.976,0,0,1,8.594,2.909,1.224,1.224,0,0,1,.283,1.78,1.239,1.239,0,0,1-1.8.138,10.417,10.417,0,0,0-16.976,6.97,9.866,9.866,0,0,0,1.213,5.957,10.1,10.1,0,0,0,7.037,5.236,10.38,10.38,0,0,0,12.44-9.528,16.856,16.856,0,0,0-.035-1.971,1.27,1.27,0,0,1,1.13-1.488,1.237,1.237,0,0,1,1.3,1.244,12.841,12.841,0,0,1-9.481,13.988,12.789,12.789,0,0,1-13.887-5.2,12.191,12.191,0,0,1-2.057-9.055,12.545,12.545,0,0,1,8.809-10.383A10.343,10.343,0,0,1,849.734,1105.532Z" transform="translate(-837.327 -1105.53)"/><path class="a" d="M905.99,1162.545a3.9,3.9,0,0,1-.872-.542q-2.755-2.954-5.465-5.95a1.26,1.26,0,0,1,.038-1.785,1.308,1.308,0,0,1,1.819.156q2.181,2.362,4.336,4.748c.246.273.385.265.652.02q6.274-5.753,12.567-11.485a1.229,1.229,0,0,1,1.738-.046,1.269,1.269,0,0,1-.078,1.841c-1.615,1.492-3.242,2.97-4.865,4.453q-4.38,4.005-8.76,8.012a1.346,1.346,0,0,1-1.053.476Z" transform="translate(-894.189 -1143.875)"/></svg>