<svg xmlns="http://www.w3.org/2000/svg" width="22.006" height="20.938" viewBox="0 0 22.006 20.938"><defs><style>.a{fill:#fff;}</style></defs><g transform="translate(-1292 -2522)"><g transform="translate(1247 2300)"><path class="a" d="M847.45,1105.531a10.586,10.586,0,0,1,7.011,2.374,1,1,0,0,1,.231,1.452,1.011,1.011,0,0,1-1.467.113,8.5,8.5,0,0,0-13.85,5.686,8.047,8.047,0,0,0,.989,4.86,8.242,8.242,0,0,0,5.742,4.271,8.469,8.469,0,0,0,10.15-7.773,13.779,13.779,0,0,0-.029-1.609,1.036,1.036,0,0,1,.921-1.213,1.009,1.009,0,0,1,1.062,1.015,10.475,10.475,0,0,1-7.735,11.411,10.435,10.435,0,0,1-11.33-4.245,9.945,9.945,0,0,1-1.678-7.387,10.234,10.234,0,0,1,7.187-8.47A8.442,8.442,0,0,1,847.45,1105.531Z" transform="translate(-792.327 -883.53)"/><path class="a" d="M904.758,1159.74a3.185,3.185,0,0,1-.712-.442q-2.248-2.41-4.459-4.854a1.028,1.028,0,0,1,.031-1.456,1.067,1.067,0,0,1,1.484.127q1.779,1.927,3.538,3.873c.2.223.314.216.532.016q5.119-4.693,10.253-9.369a1,1,0,0,1,1.418-.037,1.035,1.035,0,0,1-.063,1.5c-1.318,1.217-2.645,2.423-3.969,3.633q-3.574,3.268-7.147,6.536a1.1,1.1,0,0,1-.859.388Z" transform="translate(-850.13 -922.51)"/></g></g></svg>