<svg xmlns="http://www.w3.org/2000/svg" width="25" height="24.999" viewBox="0 0 25 24.999"><defs><style>.a{fill:#ff619e;}</style></defs><path class="a" d="M1664.849,168.1a12.5,12.5,0,1,1-12.5,12.5A12.505,12.505,0,0,1,1664.849,168.1Zm10.146,12.5a10.152,10.152,0,1,0-10.146,10.139A10.178,10.178,0,0,0,1674.994,180.6Z" transform="translate(-1652.35 -168.097)"/><path class="a" d="M1800.942,318.11c-.661.678-1.282,1.332-1.922,1.965a1.1,1.1,0,0,1-1.8-.316,1.112,1.112,0,0,1,.3-1.317c.552-.556,1.111-1.105,1.667-1.658.063-.063.122-.13.2-.211l-1.844-1.842a1.236,1.236,0,0,1-.421-.857,1.089,1.089,0,0,1,.648-1.046,1.075,1.075,0,0,1,1.214.206c.65.651,1.295,1.307,1.963,1.983.09-.086.161-.15.229-.219.559-.562,1.121-1.121,1.676-1.687a1.111,1.111,0,0,1,1.82.225,1.139,1.139,0,0,1-.288,1.387q-.817.826-1.643,1.642a2.07,2.07,0,0,1-.235.174c.1.109.158.175.221.238.567.567,1.138,1.13,1.7,1.7a1.113,1.113,0,1,1-1.556,1.575C1802.24,319.43,1801.622,318.8,1800.942,318.11Z" transform="translate(-1788.456 -304.077)"/></svg>