<svg xmlns="http://www.w3.org/2000/svg" width="20.786" height="23.013" viewBox="0 0 20.786 23.013"><defs><style>.a{fill:#fff;}</style></defs><g transform="translate(-1292 -2519.809)"><g transform="translate(1277 2519.809)"><path class="a" d="M30.347,45.219a1.114,1.114,0,0,0-1.063,1.957,8.166,8.166,0,1,1-7.81.015A1.114,1.114,0,0,0,20.4,45.238a10.393,10.393,0,1,0,9.944-.019Z" transform="translate(0 -41.737)"/><path class="a" d="M141.114,9.651a1.114,1.114,0,0,0,1.114-1.114V1.114a1.114,1.114,0,1,0-2.227,0V8.537A1.114,1.114,0,0,0,141.114,9.651Z" transform="translate(-115.721 0)"/></g></g></svg>