<svg xmlns="http://www.w3.org/2000/svg" width="77" height="95.761" viewBox="0 0 77 95.761"><defs><style>.a,.e{fill:#fff;}.b,.c{fill:#8f84f4;}.b{stroke:#fff;}.d,.g{fill:none;}.d{stroke:#9c94f9;stroke-linecap:round;stroke-linejoin:round;stroke-width:3.5px;}.e{font-size:21px;font-family:Montserrat-Bold, Montserrat;font-weight:700;}.f{stroke:none;}</style></defs><g transform="translate(-170 -111.239)"><g transform="translate(-4.166)"><g transform="translate(2)"><g transform="translate(-3.834 19.498)"><path class="a" d="M20.685,0h33.3C65.407,0,74.668,8.724,74.668,19.486V70.341c.034.158-9.261,0-20.685,0h-33.3C9.261,70.341,0,61.616,0,50.854V19.486C0,8.724,9.261,0,20.685,0Z" transform="translate(176 91.74)"/></g><g transform="translate(-7)"><g class="b" transform="translate(199 133)"><rect class="f" width="34.974" height="7" rx="3.5"/><rect class="g" x="0.5" y="0.5" width="33.974" height="6" rx="3"/></g><g class="b" transform="translate(190 144)"><rect class="f" width="34.974" height="7" rx="3.5"/><rect class="g" x="0.5" y="0.5" width="33.974" height="6" rx="3"/></g><g class="b" transform="translate(199 155)"><rect class="f" width="34.974" height="7" rx="3.5"/><rect class="g" x="0.5" y="0.5" width="33.974" height="6" rx="3"/></g><circle class="c" cx="2.5" cy="2.5" r="2.5" transform="translate(235 134)"/><circle class="c" cx="2.5" cy="2.5" r="2.5" transform="translate(235 156)"/><path class="d" d="M189.272,146.124l2.987,3.252,3.334-2.658,2.262-1.8" transform="translate(44.274 0.142)"/></g></g></g><text class="e" transform="translate(214 202)"><tspan x="-32.781" y="0">TODO</tspan></text></g></svg>