<svg xmlns="http://www.w3.org/2000/svg" width="32" height="32" viewBox="0 0 32 32"><defs><style>.a{fill:#eba62f;}.b{fill:#fff;}</style></defs><g transform="translate(-333 -607)"><circle class="a" cx="16" cy="16" r="16" transform="translate(333 607)"/><g transform="translate(340 614)"><path class="b" d="M9,0a9,9,0,1,0,9,9A9,9,0,0,0,9,0ZM9,16.312A7.312,7.312,0,1,1,16.312,9,7.312,7.312,0,0,1,9,16.312ZM9,3.947c-.645,0-1.132.336-1.132.88V9.811c0,.544.488.879,1.132.879.629,0,1.132-.349,1.132-.879V4.827C10.133,4.3,9.629,3.947,9,3.947Zm0,7.865a1.123,1.123,0,1,0,1.123,1.124A1.125,1.125,0,0,0,9,11.813Z"/></g></g></svg>