<svg xmlns="http://www.w3.org/2000/svg" width="50" height="50" viewBox="0 0 50 50"><defs><style>.a{fill:#ff619e;}.b{fill:#fff;}</style></defs><g transform="translate(-858 -420)"><circle class="a" cx="25" cy="25" r="25" transform="translate(858 420)"/><g transform="translate(874 436)"><path class="b" d="M181.813.96a7.685,7.685,0,0,1,7.676,7.676.48.48,0,0,0,.96,0A8.646,8.646,0,0,0,181.813,0a.48.48,0,0,0,0,.96Z" transform="translate(-173.177)"/><path class="b" d="M181.814,64.96a4.8,4.8,0,0,1,4.8,4.8.48.48,0,1,0,.96,0A5.764,5.764,0,0,0,181.814,64a.48.48,0,0,0,0,.96Z" transform="translate(-173.178 -61.121)"/><path class="b" d="M15.886,11.337a9.806,9.806,0,0,1-3.08-.491,1.353,1.353,0,0,0-1.369.289L9.5,12.6A10.732,10.732,0,0,1,4.67,7.777L6.093,5.885a1.4,1.4,0,0,0,.343-1.414,9.821,9.821,0,0,1-.492-3.085A1.387,1.387,0,0,0,4.558,0H1.386A1.387,1.387,0,0,0,0,1.386,15.9,15.9,0,0,0,15.886,17.272a1.388,1.388,0,0,0,1.386-1.386V12.723A1.388,1.388,0,0,0,15.886,11.337Zm.426,4.549a.427.427,0,0,1-.426.426A14.943,14.943,0,0,1,.96,1.386.427.427,0,0,1,1.386.96H4.558a.427.427,0,0,1,.426.426,10.76,10.76,0,0,0,.539,3.379.478.478,0,0,1-.152.492L3.722,7.441a.48.48,0,0,0-.045.506,11.91,11.91,0,0,0,5.646,5.647.478.478,0,0,0,.508-.044l2.234-1.693a.422.422,0,0,1,.435-.1,10.774,10.774,0,0,0,3.386.541.427.427,0,0,1,.426.426Z"/></g></g></svg>