<svg xmlns="http://www.w3.org/2000/svg" width="22" height="22" viewBox="0 0 22 22"><defs><style>.a{fill:#fff;stroke:#fff;}</style></defs><path class="a" d="M21,10.5A10.5,10.5,0,1,0,3.408,18.235l-.01.009.341.287c.022.019.046.034.068.052.181.15.368.292.559.43.062.045.124.089.187.133q.306.211.627.4l.141.081c.234.133.473.259.718.374l.054.024a10.406,10.406,0,0,0,2.539.8l.07.013c.276.048.556.086.839.111l.1.008c.282.023.567.038.855.038s.568-.015.848-.037l.107-.008q.421-.038.832-.11l.071-.013a10.4,10.4,0,0,0,2.5-.785l.087-.04q.353-.166.691-.357l.168-.1c.205-.121.407-.247.6-.382.071-.048.14-.1.21-.149.168-.121.332-.245.492-.375.036-.029.074-.053.108-.083l.349-.292-.01-.009A10.473,10.473,0,0,0,21,10.5ZM.764,10.5a9.736,9.736,0,1,1,16.193,7.279,2.861,2.861,0,0,0-.341-.205l-3.233-1.616a.846.846,0,0,1-.47-.761V14.067c.075-.092.154-.2.236-.312a7.781,7.781,0,0,0,1-1.956,1.386,1.386,0,0,0,.8-1.256V9.19a1.389,1.389,0,0,0-.339-.9V6.5a3.08,3.08,0,0,0-.719-2.239A4.3,4.3,0,0,0,10.5,3.055a4.3,4.3,0,0,0-3.386,1.21A3.08,3.08,0,0,0,6.4,6.5V8.285a1.391,1.391,0,0,0-.339.9v1.354a1.389,1.389,0,0,0,.512,1.077A7.174,7.174,0,0,0,7.749,14.06v1.1a.852.852,0,0,1-.444.748L4.287,17.559A2.759,2.759,0,0,0,4,17.741,9.713,9.713,0,0,1,.764,10.5Zm15.448,7.878c-.134.1-.27.191-.407.281-.063.041-.126.082-.191.123-.18.111-.363.218-.551.317l-.124.064a9.729,9.729,0,0,1-1.332.564l-.048.016q-.359.119-.727.211h0c-.247.061-.5.112-.75.153l-.021,0c-.237.039-.476.066-.716.087l-.128.01c-.237.018-.475.029-.715.029s-.483-.012-.724-.03l-.124-.01c-.242-.021-.483-.05-.722-.089L8.9,20.1a9.7,9.7,0,0,1-1.485-.371l-.045-.015q-.36-.123-.711-.272l0,0c-.221-.1-.437-.2-.651-.312l-.084-.043c-.2-.1-.386-.217-.574-.334l-.166-.107c-.173-.113-.344-.231-.511-.356l-.051-.04.037-.021,3.019-1.647a1.615,1.615,0,0,0,.842-1.418V13.789l-.088-.106A6.375,6.375,0,0,1,7.279,11.31l-.035-.151-.13-.084a.633.633,0,0,1-.294-.531V9.189a.624.624,0,0,1,.213-.467l.126-.114V6.482l0-.05a2.3,2.3,0,0,1,.533-1.665A3.6,3.6,0,0,1,10.5,3.818a3.607,3.607,0,0,1,2.8.942,2.338,2.338,0,0,1,.54,1.673l0,2.177.126.114a.624.624,0,0,1,.213.467v1.354a.638.638,0,0,1-.451.6l-.19.058-.061.189a7.064,7.064,0,0,1-.953,1.921c-.1.141-.2.267-.281.362l-.095.108V15.2a1.605,1.605,0,0,0,.893,1.444l3.233,1.616.061.032C16.295,18.319,16.253,18.348,16.212,18.378Z" transform="translate(0.5 0.5)"/></svg>