<svg xmlns="http://www.w3.org/2000/svg" width="23.666" height="25.449" viewBox="0 0 23.666 25.449"><defs><style>.a{fill:#ff619e;}</style></defs><path class="a" d="M1858.4,1525.771c0-.24,0-.544,0-.847s.1-.623.422-.692a1.089,1.089,0,0,1,.762.1c1.043.705,2.06,1.448,3.076,2.191a.721.721,0,0,1-.007,1.315c-.995.721-1.984,1.452-3,2.136a1.166,1.166,0,0,1-.847.147c-.342-.09-.409-.455-.4-.8.006-.392,0-.784,0-1.17a9.337,9.337,0,0,0-5.07,1.277,9.482,9.482,0,0,0-4.6,6.3,9.6,9.6,0,0,0,18.562,4.86c.11-.348.177-.709.286-1.057a1.137,1.137,0,1,1,2.2.593,11.7,11.7,0,0,1-8.783,9.147,11.835,11.835,0,0,1-12.244-4.193,11.866,11.866,0,0,1,6.75-18.908C1856.414,1525.962,1857.37,1525.909,1858.4,1525.771Z" transform="translate(-1846.213 -1524.208)"/><path class="a" d="M2075.643,1606.273a.86.86,0,0,1-.883-.889.891.891,0,1,1,1.782.02A.858.858,0,0,1,2075.643,1606.273Z" transform="translate(-2053.894 -1597.286)"/><path class="a" d="M2048.34,1572.078a.92.92,0,0,1-.861.931.911.911,0,0,1-.924-.9.851.851,0,0,1,.855-.876A.886.886,0,0,1,2048.34,1572.078Z" transform="translate(-2028.54 -1567.012)"/><path class="a" d="M2089.511,1646.93a.885.885,0,0,1,.89-.888.9.9,0,0,1,.9.889.942.942,0,0,1-.9.9A.921.921,0,0,1,2089.511,1646.93Z" transform="translate(-2067.633 -1635.107)"/><path class="a" d="M1969.993,1632.716c0-.458-.008-.916,0-1.375a.657.657,0,0,1,.653-.675.639.639,0,0,1,.664.617c.027.7,0,1.4.034,2.1a.954.954,0,0,0,.225.557c.4.439.834.843,1.25,1.265a.691.691,0,0,1,.1,1.031.669.669,0,0,1-1.031-.054q-.885-.858-1.74-1.747a.634.634,0,0,1-.147-.387c-.018-.444-.007-.889-.007-1.334Z" transform="translate(-1958.628 -1620.469)"/></svg>