<svg xmlns="http://www.w3.org/2000/svg" width="21.155" height="22.755" viewBox="0 0 21.155 22.755"><defs><style>.a{fill:#fff;}</style></defs><g transform="translate(-1292.162 -2520.245)"><g transform="translate(1273.162 2240.245)"><path class="a" d="M1857.094,1525.606c0-.214,0-.486,0-.758s.09-.557.377-.618a.971.971,0,0,1,.68.094c.931.631,1.84,1.3,2.748,1.959a.645.645,0,0,1-.006,1.175c-.889.645-1.772,1.3-2.683,1.91a1.04,1.04,0,0,1-.757.132c-.305-.08-.366-.407-.36-.714.006-.351,0-.7,0-1.047a8.333,8.333,0,0,0-4.528,1.142,8.479,8.479,0,0,0-4.106,5.63,8.578,8.578,0,0,0,16.58,4.345c.1-.311.158-.634.256-.945a1.016,1.016,0,1,1,1.961.53,10.453,10.453,0,0,1-7.845,8.179,10.616,10.616,0,1,1-4.907-20.656C1855.324,1525.776,1856.178,1525.729,1857.094,1525.606Z" transform="translate(-1827.212 -1244.207)"/><path class="a" d="M2075.75,1606.49a.965.965,0,0,1-.99-1,1,1,0,1,1,2,.022A.962.962,0,0,1,2075.75,1606.49Z" transform="translate(-2037.746 -1318.172)"/><path class="a" d="M2048.557,1572.181a1.033,1.033,0,0,1-.966,1.045,1.021,1.021,0,0,1-1.037-1.011.954.954,0,0,1,.958-.983A1,1,0,0,1,2048.557,1572.181Z" transform="translate(-2011.786 -1287.53)"/><path class="a" d="M2089.511,1647.038a.993.993,0,0,1,1-1,1.012,1.012,0,0,1,1.008,1,1.056,1.056,0,0,1-1.008,1.009A1.032,1.032,0,0,1,2089.511,1647.038Z" transform="translate(-2051.362 -1356.452)"/><path class="a" d="M1969.994,1632.965c0-.514-.009-1.028,0-1.542a.737.737,0,0,1,.732-.758.717.717,0,0,1,.745.693c.031.785,0,1.572.038,2.357a1.072,1.072,0,0,0,.252.625c.446.493.935.945,1.4,1.419a.775.775,0,0,1,.107,1.157.75.75,0,0,1-1.156-.061q-.993-.963-1.952-1.96a.711.711,0,0,1-.165-.434c-.02-.5-.008-1-.008-1.5Z" transform="translate(-1941.226 -1342.232)"/></g></g></svg>