<svg xmlns="http://www.w3.org/2000/svg" width="102.357" height="34" viewBox="0 0 102.357 34"><defs><style>.a,.e{fill:#fff;}.b,.c{fill:#8f84f4;}.b{stroke:#fff;stroke-width:0.5px;}.d,.g{fill:none;}.d{stroke:#9c94f9;stroke-linecap:round;stroke-linejoin:round;stroke-width:2px;}.e{font-size:21px;font-family:Montserrat-Bold, Montserrat;font-weight:700;}.f{stroke:none;}</style></defs><g transform="translate(-199.643 -155.239)"><g transform="translate(25.477 39)"><g transform="translate(174.166 116.239)"><path class="a" d="M8.618,0H22.49a8.379,8.379,0,0,1,8.618,8.118V29.3c.014.066-3.858,0-8.618,0H8.618A8.379,8.379,0,0,1,0,21.187V8.118A8.379,8.379,0,0,1,8.618,0Z"/><g transform="translate(4.514 9.066)"><g class="b" transform="translate(3.75)"><rect class="f" width="14.571" height="2.916" rx="1.458"/><rect class="g" x="0.25" y="0.25" width="14.071" height="2.416" rx="1.208"/></g><g class="b" transform="translate(0 4.583)"><rect class="f" width="14.571" height="2.916" rx="1.458"/><rect class="g" x="0.25" y="0.25" width="14.071" height="2.416" rx="1.208"/></g><g class="b" transform="translate(3.75 9.166)"><rect class="f" width="14.571" height="2.916" rx="1.458"/><rect class="g" x="0.25" y="0.25" width="14.071" height="2.416" rx="1.208"/></g><circle class="c" cx="1.042" cy="1.042" r="1.042" transform="translate(18.748 0.417)"/><circle class="c" cx="1.042" cy="1.042" r="1.042" transform="translate(18.748 9.582)"/><path class="d" d="M189.272,145.418l1.245,1.355,1.389-1.108.943-.751" transform="translate(-171.13 -139.891)"/></g></g></g><text class="e" transform="translate(269 184.239)"><tspan x="-32.781" y="0">TODO</tspan></text></g></svg>